<svg width="66" height="76" viewBox="0 0 66 76" fill="none" xmlns="http://www.w3.org/2000/svg">
<path d="M65.9987 45.3673C65.9987 44.2731 65.5642 43.2244 64.7911 42.4508C64.0175 41.6772 62.9683 41.2427 61.8746 41.2427H30.6474V33.984C36.1739 31.3208 40.0745 25.0165 40.0745 17.6753C40.0745 7.92978 33.2042 0 24.756 0C16.3071 0 9.4375 7.93034 9.4375 17.6753C9.28669 23.9721 12.4077 29.8984 17.6857 33.3354V41.2424H4.13464C2.87549 41.2359 1.68257 41.8061 0.897478 42.7906C0.112486 43.7747 -0.178843 45.0648 0.108139 46.2908C0.394579 47.5169 1.22678 48.5445 2.36716 49.0787V71.8801C2.36716 73.143 3.04095 74.3099 4.13469 74.9414C5.22843 75.5729 6.57593 75.5729 7.66961 74.9414C8.76383 74.3099 9.43755 73.143 9.43755 71.8801V49.4912H40.0759V71.8801C40.0759 72.8175 40.4481 73.7165 41.111 74.3794C41.7739 75.0423 42.6734 75.415 43.6108 75.415H60.1084C61.0459 75.415 61.9448 75.0423 62.6083 74.3794C63.2712 73.7164 63.6433 72.8175 63.6433 71.8801V49.0787C64.3464 48.7451 64.9405 48.2199 65.3577 47.563C65.7749 46.906 65.9973 46.1449 66 45.367L65.9987 45.3673ZM11.7938 17.676C11.7938 9.22709 17.6029 2.35752 24.7557 2.35752C31.9086 2.35752 37.7177 9.22778 37.7177 17.676C37.7177 26.1249 31.9086 32.9945 24.7557 32.9945C17.6029 32.9945 11.7938 26.1242 11.7938 17.676ZM20.0426 34.4916C21.5491 35.0591 23.1457 35.3504 24.7559 35.352C25.9516 35.3493 27.1407 35.1827 28.2914 34.8567V41.2435H20.0426V34.4916ZM7.08005 71.8823C7.08005 72.5328 6.55274 73.0606 5.90173 73.0606C5.25128 73.0606 4.72342 72.5328 4.72342 71.8823V49.4934H7.08008L7.08005 71.8823ZM50.6801 49.4934V50.6718C50.6801 51.3228 51.2074 51.8501 51.8584 51.8501C52.5094 51.8501 53.0367 51.3228 53.0367 50.6718V49.4934H61.2855V54.4427H52.5301C52.1379 54.1275 51.5791 54.1275 51.1869 54.4427H42.4314V49.4934H50.6801ZM42.4313 61.2771V56.7994H50.6801V57.7422C50.6801 58.3932 51.2074 58.9206 51.8584 58.9206C52.5094 58.9206 53.0367 58.3932 53.0367 57.7422V56.7994H61.2855V61.2771H42.4313ZM60.1066 73.0614H43.609C42.958 73.0614 42.4307 72.5336 42.4307 71.8831V63.6343H50.6795V64.8126C50.6795 65.4631 51.2068 65.9909 51.8578 65.9909C52.5088 65.9909 53.0361 65.4631 53.0361 64.8126V63.6343H61.2849V71.8831C61.2849 72.1956 61.1607 72.495 60.9399 72.7158C60.7185 72.9372 60.4191 73.0614 60.1066 73.0614ZM61.8741 47.1367H4.13329C3.15734 47.1367 2.36576 46.3451 2.36576 45.3691C2.36576 44.3926 3.15727 43.6016 4.13329 43.6016H61.8741C62.8501 43.6016 63.6416 44.3926 63.6416 45.3691C63.6416 46.3451 62.8501 47.1367 61.8741 47.1367Z" fill="#4F4E4E"/>
<path d="M34.1826 53.0266H15.3283C14.3908 53.0266 13.4913 53.3987 12.8284 54.0617C12.1655 54.7246 11.7933 55.6241 11.7933 56.5615V74.2368C11.7933 74.5493 11.9176 74.8487 12.1384 75.0701C12.3592 75.2909 12.6592 75.4151 12.9716 75.4151H36.5396C36.8521 75.4151 37.1521 75.2909 37.3729 75.0701C37.5942 74.8487 37.7179 74.5493 37.7179 74.2368V56.5615C37.7179 55.6241 37.3458 54.7245 36.6828 54.0617C36.0199 53.3987 35.1204 53.0266 34.183 53.0266H34.1826ZM15.3283 55.3832H34.1826C34.4951 55.3832 34.7951 55.5075 35.0159 55.7283C35.2367 55.9491 35.3609 56.2491 35.3609 56.5616V57.7399H14.1498V56.5616C14.1498 55.9106 14.6776 55.3832 15.3281 55.3832H15.3283ZM14.1499 73.0585V60.096H35.3611V73.0585H14.1499Z" fill="#4F4E4E"/>
</svg>
