<svg xmlns="http://www.w3.org/2000/svg" width="52" height="65.4" fill="none"><path fill="#757575" d="M5.1 0H1.4C.6 0 0 .8 0 1.6S.8 3 1.6 3h2.2v60.9c0 .7.7 1.5 1.5 1.5s1.5-.8 1.5-1.5v-1.5h38.5v1.5c0 .7.7 1.5 1.5 1.5s1.5-.8 1.5-1.5V3h2.2c.8 0 1.5-.7 1.5-1.5S51.3 0 50.5 0H5Zm1.7 3h38.5v3H6.8V3Zm0 6h38.5v14.8H6.8V8.9Zm0 17.8h38.5v14.8H6.8V26.8Zm16.9 3c-.8 0-1.5.7-1.5 1.5s.8 1.4 1.6 1.4h4.5c.7 0 1.5-.7 1.5-1.5s-.8-1.5-1.5-1.5h-4.6Zm-17 14.8h38.6v14.8H6.8V44.6Zm17 3c-.8 0-1.5.7-1.4 1.5 0 .8.7 1.4 1.5 1.4h4.5c.7 0 1.5-.7 1.5-1.5s-.8-1.5-1.5-1.5h-4.6Z"/></svg>