<svg width="73" height="69" viewBox="0 0 73 69" fill="none" xmlns="http://www.w3.org/2000/svg">
<path d="M63.4731 20.6287V12.0085C63.4692 8.82516 62.203 5.77256 59.9514 3.52167C57.7005 1.27012 54.6479 0.00392113 51.4646 0H20.5857C17.4024 0.00382931 14.3498 1.27002 12.0989 3.52167C9.84732 5.77256 8.58113 8.82516 8.5772 12.0085V20.6287C6.08059 20.8559 3.77725 22.0673 2.1753 23.9952C0.574042 25.9239 -0.193714 28.4109 0.0417172 30.9064C0.277214 33.4023 1.49618 35.7013 3.43055 37.296V53.1804C3.43311 54.8473 3.92133 56.4774 4.83525 57.8712C5.74917 59.2657 7.04988 60.3634 8.57699 61.0303V65.1888C8.57827 66.0983 8.94014 66.9706 9.58345 67.6134C10.2261 68.2567 11.0985 68.6186 12.008 68.6198H15.439C16.3484 68.6186 17.2208 68.2567 17.8636 67.6134C18.5069 66.9707 18.8687 66.0983 18.87 65.1888V61.7578H53.1799V65.1888C53.1812 66.0983 53.5431 66.9706 54.1864 67.6134C54.8291 68.2567 55.7015 68.6186 56.611 68.6198H60.042C60.9514 68.6186 61.8238 68.2567 62.4665 67.6134C63.1098 66.9707 63.4717 66.0983 63.473 65.1888V61.0303C65.0002 60.3634 66.3009 59.2656 67.2147 57.8712C68.1286 56.4773 68.6169 54.8473 68.6194 53.1804V37.296C70.5538 35.7011 71.7728 33.4023 72.0083 30.9064C72.2438 28.4111 71.476 25.9239 69.8747 23.9952C68.2728 22.0672 65.9696 20.8558 63.4728 20.6287H63.4731ZM20.5857 3.43132H51.4646C53.7385 3.43387 55.9187 4.33885 57.5268 5.94656C59.1345 7.55484 60.0395 9.73503 60.0421 12.0088V20.9519C58.0681 21.5135 56.3309 22.7025 55.0928 24.3388C53.8553 25.9752 53.1832 27.9703 53.1801 30.022V40.8433C47.5059 39.9403 41.7709 39.4763 36.0251 39.4565C30.2794 39.4763 24.5444 39.9403 18.8702 40.8433V30.022C18.867 27.9701 18.195 25.975 16.9575 24.3388C15.7194 22.7024 13.9822 21.5135 12.0082 20.9519V12.0088C12.0107 9.73486 12.9157 7.55471 14.5234 5.94656C16.1317 4.33893 18.3119 3.43393 20.5857 3.43132ZM15.4392 65.1891H12.0082V61.7582H15.4392V65.1891ZM60.0421 65.1891H56.6111V61.7582H60.0421V65.1891ZM65.9486 35.0128C65.4738 35.3312 65.1885 35.8654 65.1885 36.4373V53.1805C65.1872 54.545 64.6441 55.8532 63.6798 56.8183C62.7148 57.7826 61.4065 58.3258 60.042 58.327H12.0081C10.6436 58.3258 9.33534 57.7826 8.37025 56.8183C7.40593 55.8534 6.8628 54.545 6.86153 53.1805V36.4373C6.86153 35.8654 6.57625 35.3312 6.10144 35.0128C4.3464 33.841 3.3354 31.8339 3.43882 29.7259C3.54157 27.6187 4.74396 25.7198 6.60497 24.725C8.46604 23.7301 10.7132 23.7856 12.5225 24.8712C14.3324 25.9561 15.4396 27.9115 15.4391 30.0221V42.8876C15.4398 43.4014 15.6702 43.8877 16.0678 44.2138C16.4654 44.5393 16.9874 44.6695 17.4916 44.5693C23.6087 43.471 29.8102 42.9081 36.0255 42.8876C42.2403 42.9081 48.4417 43.471 54.5594 44.5693C55.0635 44.6695 55.5856 44.5393 55.9832 44.2138C56.3808 43.8877 56.6112 43.4014 56.6118 42.8876V30.0221C56.6106 27.9109 57.7178 25.9547 59.5278 24.8686C61.3378 23.783 63.5856 23.7274 65.4471 24.7224C67.3087 25.7174 68.5112 27.6167 68.6139 29.7253C68.7173 31.8332 67.7051 33.841 65.9494 35.0128H65.9486Z" fill="#757575"/>
</svg>
