<svg width="59" height="74" viewBox="0 0 59 74" fill="none" xmlns="http://www.w3.org/2000/svg">
<path d="M54.8785 43.3792H3.84398C3.13941 43.3792 2.56812 42.8079 2.56812 42.1033V34.4481C2.56812 33.7436 3.13941 33.1723 3.84398 33.1723H54.8785C55.2168 33.1723 55.5415 33.3067 55.7807 33.5459C56.0199 33.7851 56.1543 34.1098 56.1543 34.4481V42.1033C56.1543 42.4416 56.0199 42.7663 55.7807 43.0055C55.5415 43.2447 55.2168 43.3792 54.8785 43.3792ZM5.11984 40.8274H53.6026V35.724H5.11984V40.8274Z" fill="#757575"/>
<path d="M8.94753 73.9999H1.29236C0.915301 74.005 0.555887 73.8427 0.309828 73.5573C0.0631999 73.272 -0.0438856 72.892 0.0164955 72.5201L5.11995 41.8994C5.22076 41.2752 5.76358 40.8195 6.39581 40.8274H14.051C14.428 40.8223 14.7875 40.9846 15.0335 41.27C15.2801 41.5554 15.3872 41.9353 15.3268 42.3072L10.2234 72.9279C10.1226 73.5522 9.57976 74.0079 8.94753 73.9999ZM2.79773 71.4482H7.90118L12.5837 43.3792H7.48022L2.79773 71.4482Z" fill="#757575"/>
<path d="M21.7062 35.724H16.6028C15.8982 35.724 15.3269 35.1527 15.3269 34.4481V14.0343C15.3269 13.3298 15.8982 12.7585 16.6028 12.7585H21.7062C22.0445 12.7585 22.3692 12.8929 22.6084 13.1321C22.8477 13.3714 22.9821 13.696 22.9821 14.0343V34.4481C22.9821 34.7865 22.8477 35.1111 22.6084 35.3504C22.3692 35.5896 22.0445 35.724 21.7062 35.724ZM17.8786 33.1723H20.4304V15.3102H17.8786V33.1723Z" fill="#757575"/>
<path d="M42.12 35.724H37.0166C36.312 35.724 35.7407 35.1527 35.7407 34.4481V14.0343C35.7407 13.3298 36.312 12.7585 37.0166 12.7585H42.12C42.4584 12.7585 42.783 12.8929 43.0223 13.1321C43.2615 13.3714 43.3959 13.696 43.3959 14.0343V34.4481C43.3959 34.7865 43.2615 35.1111 43.0223 35.3504C42.783 35.5896 42.4584 35.724 42.12 35.724ZM38.2924 33.1723H40.8442V15.3102H38.2924V33.1723Z" fill="#757575"/>
<path d="M57.4304 73.9999H49.7752C49.143 74.0079 48.6002 73.5522 48.4993 72.9279L43.3959 42.3072C43.3355 41.9353 43.4426 41.5554 43.6892 41.27C43.9353 40.9847 44.2947 40.8223 44.6718 40.8274H52.3269C52.9592 40.8195 53.502 41.2751 53.6028 41.8994L58.7062 72.5201C58.7666 72.892 58.6595 73.2719 58.4129 73.5573C58.1668 73.8427 57.8074 74.005 57.4304 73.9999ZM50.8598 71.4482H55.9632L51.2425 43.3792H46.1391L50.8598 71.4482Z" fill="#757575"/>
<path d="M47.2233 15.3102H11.4991C10.4842 15.3102 9.51011 14.9069 8.79257 14.1893C8.07502 13.4716 7.67163 12.4975 7.67163 11.4827V3.82751C7.67163 2.81253 8.07489 1.83848 8.79257 1.12094C9.51024 0.403391 10.4843 0 11.4991 0H47.2233C48.2383 0 49.2123 0.40326 49.9299 1.12094C50.6474 1.83861 51.0508 2.81266 51.0508 3.82751V11.4827C51.0508 12.4977 50.6476 13.4717 49.9299 14.1893C49.2122 14.9068 48.2382 15.3102 47.2233 15.3102ZM11.4991 2.55158C10.7946 2.55158 10.2233 3.12287 10.2233 3.82744V11.4826C10.2233 11.8209 10.3577 12.1456 10.5969 12.3848C10.8362 12.6241 11.1608 12.7585 11.4991 12.7585H47.2233C47.5616 12.7585 47.8863 12.6241 48.1255 12.3848C48.3647 12.1456 48.4992 11.8209 48.4992 11.4826V3.82744C48.4992 3.48911 48.3647 3.16445 48.1255 2.92522C47.8863 2.686 47.5616 2.55158 47.2233 2.55158H11.4991Z" fill="#757575"/>
</svg>
