<svg xmlns="http://www.w3.org/2000/svg" width="24" height="22" fill="none"><path fill="#6C758D" d="M23 4v-.2a.6.6 0 0 0-.4-.2H5.2L4.8.5V.4L4.5.1V0h-4a.6.6 0 0 0 0 1.1h3.1l2.1 12.5a2 2 0 0 0-1.5 2c0 1.2 1 2 2 2h14c.3 0 .6-.2.6-.5s-.3-.6-.6-.6h-14a1 1 0 0 1-1-.8v-.1c0-.5.5-.9 1-1l4.2-.3 10.6-1h.2a.6.6 0 0 0 .2-.2v-.2L23 4.2V4ZM5.8 6.4l-.3-1.6h2.9l.2 1.6H5.8Zm.1 1.2h3l.3 2h-3l-.3-2Zm1 6-.4-3h2.8l.5 2.7-2.8.3Zm6.2-.6-2.2.2-.4-2.5H13V13Zm0-3.5h-2.8l-.3-2h3v2Zm0-3H9.8l-.3-1.7h3.6v1.6Zm3.4 6.2-2.3.2v-2.2h2.6l-.3 2Zm.5-3.2h-2.8v-2h3.1l-.3 2Zm-2.8-3V4.6h3.6l-.3 1.6h-3.3Zm6.4 5.8-3 .3.3-2h3l-.3 1.7Zm.4-2.8h-2.9l.4-2h2.9l-.4 2Zm.5-3h-2.8l.2-1.7h3l-.4 1.6ZM8.9 18.3a1.9 1.9 0 1 0 0 3.7 1.9 1.9 0 0 0 0-3.7Zm0 2.6a.7.7 0 1 1 0-1.5.7.7 0 0 1 0 1.5Zm8.1-2.6a1.9 1.9 0 1 0 0 3.7 1.9 1.9 0 0 0 0-3.7Zm0 2.6a.7.7 0 1 1 0-1.5.7.7 0 0 1 0 1.5Z"/></svg>